<?xml version="1.0" encoding="utf-8"?>
<!-- Generator: Adobe Illustrator 27.8.1, SVG Export Plug-In . SVG Version: 6.00 Build 0)  -->
<svg version="1.1" id="Layer_1" xmlns="http://www.w3.org/2000/svg" xmlns:xlink="http://www.w3.org/1999/xlink" x="0px" y="0px"
	 viewBox="0 0 714.4 215.2" style="enable-background:new 0 0 714.4 215.2;" xml:space="preserve">
<style type="text/css">
	.st0{fill:#564373;}
	.st1{fill:#FFFFFF;}
</style>
<g>
	<path class="st0" d="M273.1,137.1l-7.3-7.6l0.8-0.9c6.1-7.2,6.4-17.7,0.6-25.2c-5-6.4-11-11.3-17.8-14.5c0-0.1,0-0.2,0.1-0.4
		l8.4-60c0.8-5.7-0.9-11.5-4.7-15.8c-3.8-4.3-9.3-6.8-15.1-6.8l-15.3,0.1c-4.1,0-8,1.3-11.2,3.6c-1.8-0.5-3.7-0.8-5.6-0.8
		c-0.5,0-1.1,0-1.6,0.1l-9.1,0.7c-2.4,0.2-4.7,0.8-6.8,1.8c-2.6-1.2-5.5-1.8-8.4-1.8c-1,0-2.1,0.1-3.1,0.2l-15.5,2.4
		c-5.7,0.9-10.7,4.2-13.8,9.1c-3.1,4.9-3.8,10.9-2.1,16.4l0,0.1c-2.7,0.2-5.4,0.6-8.1,1.2c-3.3,0.7-6.3,1.8-9.2,3.1l-1.5-9.4
		c-1.6-9.7-9.8-16.7-19.6-16.7c-2,0-4,0.3-6,0.9l-17.6,5.5c-4.4,1.4-8,4.2-10.5,7.8c-0.3,0-0.7,0-1,0c-2.5,0-5,0.5-7.4,1.4
		l-10.3,4.1c-2.6,1-4.9,2.6-6.8,4.6c-1.3-0.3-2.6-0.4-4-0.4c-3,0-6,0.7-8.7,2l-17,8.3c-5.2,2.5-9,7.2-10.5,12.8
		C5.7,68.4,6.7,74.4,10,79.2l37.3,54.7c-0.2,2.4,0.1,4.8,0.8,7.1l17.6,58c2.6,8.4,10.2,14.1,19,14.1c0.5,0,1,0,1.5-0.1l14.6-1.1
		c3.3-0.3,6.4-1.3,9.1-3c2.4,1,5.1,1.6,7.8,1.6c0.5,0,1,0,1.5-0.1l14.5-1.1c9.4-0.7,16.8-7.7,18.2-17l0.3-1.8c0,0,0,0,0,0
		c8.6,4.4,16.7,6.5,25.4,6.5c1.9,0,3.8-0.1,5.8-0.3c10.3-1.1,17.9-9.7,17.8-19.9c7.6,4.8,16.7,7.5,26.4,7.5c3.9,0,7.8-0.4,11.6-1.3
		c20.4-4.5,23.3-7.5,33.8-18.4C280.4,156.9,280.5,144.8,273.1,137.1z"/>
	<path class="st1" d="M269.7,134.3l-7.3-7.6l0.8-0.9c6.1-7.2,6.4-17.7,0.6-25.2c-5-6.4-11-11.3-17.8-14.5c0-0.1,0-0.2,0.1-0.4
		l8.4-60c0.8-5.7-0.9-11.5-4.7-15.8C246,5.5,240.5,3,234.6,3l-15.3,0.1c-4.1,0-8,1.3-11.2,3.6c-1.8-0.5-3.7-0.8-5.6-0.8
		c-0.5,0-1.1,0-1.6,0.1l-9.1,0.7c-2.4,0.2-4.7,0.8-6.8,1.8c-2.6-1.2-5.5-1.8-8.4-1.8c-1,0-2.1,0.1-3.1,0.2l-15.5,2.4
		c-5.7,0.9-10.7,4.2-13.8,9.1c-3.1,4.9-3.8,10.9-2.1,16.4l0,0.1c-2.7,0.2-5.4,0.6-8.1,1.2c-3.3,0.7-6.3,1.8-9.2,3.1l-1.5-9.4
		c-1.6-9.7-9.8-16.7-19.6-16.7c-2,0-4,0.3-6,0.9l-17.6,5.5c-4.4,1.4-8,4.2-10.5,7.8c-0.3,0-0.7,0-1,0c-2.5,0-5,0.5-7.4,1.4
		l-10.3,4.1c-2.6,1-4.9,2.6-6.8,4.6c-1.3-0.3-2.6-0.4-4-0.4c-3,0-6,0.7-8.7,2l-17,8.3c-5.2,2.5-9,7.2-10.5,12.8
		c-1.5,5.6-0.5,11.5,2.8,16.3l37.3,54.7c-0.2,2.4,0.1,4.8,0.8,7.1l17.6,58c2.6,8.4,10.2,14.1,19,14.1c0.5,0,1,0,1.5-0.1l14.6-1.1
		c3.3-0.3,6.4-1.3,9.1-3c2.4,1,5.1,1.6,7.8,1.6c0.5,0,1,0,1.5-0.1l14.5-1.1c9.4-0.7,16.8-7.7,18.2-17l0.3-1.8c0,0,0,0,0,0
		c8.6,4.4,16.7,6.5,25.4,6.5c1.9,0,3.8-0.1,5.8-0.3c10.3-1.1,17.9-9.7,17.8-19.9c7.6,4.8,16.7,7.5,26.4,7.5c3.9,0,7.8-0.4,11.6-1.3
		c13.9-3.1,24.7-8.9,33.8-18.4C277,154.1,277,142,269.7,134.3z"/>
	<g>
		<path class="st0" d="M63,134.7c-3.6,0-7-1.8-9-4.8L14,71.3c-1.8-2.6-2.3-5.9-1.5-9c0.8-3.1,2.9-5.6,5.8-7l17-8.3
			c1.5-0.7,3.1-1.1,4.8-1.1c2.8,0,5.5,1.1,7.5,3c0.8-3.5,3.2-6.4,6.6-7.8L64.4,37c1.3-0.5,2.7-0.8,4.1-0.8c2.4,0,4.6,0.8,6.5,2.1
			c0.1-4.6,3.1-8.9,7.6-10.3l17.6-5.5c1.1-0.3,2.2-0.5,3.3-0.5c5.4,0,9.9,3.9,10.8,9.2l11.3,70.1c0.8,5.1-1.9,10-6.7,11.9l-16.2,6.5
			c-1.3,0.5-2.7,0.8-4.1,0.8c-3.3,0-6.4-1.5-8.5-4c0.4,4.8-2.3,9.2-6.8,11L67,133.9C65.7,134.4,64.4,134.7,63,134.7z"/>
	</g>
	<g>
		<path class="st0" d="M178.9,97.8c-4.8,0-9-3.1-10.4-7.7l-17.9-57.9c-0.9-3-0.5-6.3,1.2-9c1.7-2.7,4.4-4.5,7.6-5l15.5-2.4
			c0.6-0.1,1.1-0.1,1.7-0.1c3.3,0,6.4,1.5,8.4,3.9c1.8-2.2,4.5-3.7,7.5-3.9l9.1-0.7c0.3,0,0.6,0,0.9,0c2.8,0,5.4,1.1,7.4,2.9
			c1.9-3.4,5.5-5.6,9.5-5.6l15.3-0.1c3.2,0,6.2,1.4,8.3,3.8c2.1,2.4,3,5.5,2.6,8.7l-8.4,60c-0.7,5.1-4.8,9-9.9,9.4L212.7,95
			c-0.3,0-0.6,0-0.9,0c-3.5,0-6.7-1.6-8.7-4.3c-1.7,3.2-4.9,5.4-8.8,5.8l-14.6,1.2C179.5,97.8,179.2,97.8,178.9,97.8z"/>
	</g>
	<g>
		<g>
			<path class="st0" d="M142.3,114.6c-16.9,0-30.3-10.7-34-27.4c-4.5-19.9,7.1-37.7,27.6-42.4c3-0.7,6.1-1,9.1-1
				c16.9,0,30.3,10.7,34,27.4c4.5,19.9-7.1,37.7-27.6,42.3C148.4,114.3,145.3,114.6,142.3,114.6L142.3,114.6z M142,79.3"/>
		</g>
	</g>
	<g>
		<path class="st1" d="M99.3,111.3c-0.8,0.3-1.8,0-2.3-0.7L75.2,79.4L75,79.5l6.1,37.5c0.1,0.9-0.4,1.8-1.2,2.1l-16.3,6.5
			c-0.8,0.3-1.8,0-2.3-0.7l-40-58.6c-0.7-1-0.3-2.3,0.8-2.9l17-8.3c0.9-0.4,1.9-0.1,2.5,0.7l20.1,29.7l0.2-0.1l-5.6-33.8
			c-0.2-0.9,0.3-1.8,1.2-2.1l10.3-4.1c0.8-0.3,1.8,0,2.3,0.7l19.8,28.6l0.2-0.1L84,38.8c-0.2-1,0.4-1.9,1.3-2.2l17.6-5.5
			c1.1-0.4,2.3,0.4,2.5,1.5l11.3,70.1c0.1,0.9-0.4,1.8-1.2,2.1L99.3,111.3z"/>
	</g>
	<g>
		<g>
			<path class="st1" d="M170.3,73.2c-3.5-15.6-17.4-23-32.4-19.6c-15,3.4-24.4,16-20.8,31.6c3.5,15.6,17.4,23,32.4,19.6
				C164.5,101.4,173.8,88.8,170.3,73.2z M145.4,87c-4.4,1-7.9-1.5-9-6.1c-1.1-4.7,1-8.4,5.4-9.4c4.4-1,7.9,1.5,8.9,6.1
				C151.9,82.3,149.8,86,145.4,87z"/>
		</g>
	</g>
	<g>
		<path class="st1" d="M212,86.1c-0.9,0.1-1.7-0.5-2-1.3l-9.9-31l-0.2,0l-4.5,32.2c-0.1,0.9-0.9,1.6-1.8,1.7L179,88.8
			c-0.9,0.1-1.8-0.5-2-1.4l-17.9-57.9c-0.4-1.1,0.4-2.3,1.6-2.5l15.5-2.4c1-0.2,1.9,0.4,2.2,1.4l9,29.3l0.2,0l3.9-29
			c0.1-0.9,0.9-1.6,1.8-1.7l9.1-0.7c0.9-0.1,1.7,0.5,2,1.4l9,28.4l0.2,0l4-30.8c0.1-1,0.9-1.7,1.9-1.7l15.3-0.1c1.2,0,2.1,1,1.9,2.2
			l-8.4,60c-0.1,0.9-0.9,1.6-1.8,1.7L212,86.1z"/>
	</g>
	<g>
		<path class="st0" d="M81.3,201.3c-4.8,0-9-3.1-10.5-7.7l-17.6-58c-0.9-3-0.5-6.3,1.2-9c1.7-2.7,4.5-4.5,7.6-5l15.5-2.4
			c0.5-0.1,1.1-0.1,1.7-0.1c3.3,0,6.4,1.5,8.4,4c1.8-2.2,4.5-3.7,7.5-3.9l9.1-0.7c0.3,0,0.6,0,0.9,0c2.8,0,5.5,1.1,7.5,2.9
			c1.9-3.3,5.5-5.6,9.5-5.6l15.4,0c3.2,0,6.2,1.4,8.3,3.8c2.1,2.4,3,5.6,2.6,8.7l-8.7,60c-0.7,5.1-4.8,8.9-10,9.3l-14.5,1.1
			c-0.3,0-0.6,0-0.8,0c-3.5,0-6.7-1.6-8.7-4.3c-1.7,3.2-5,5.4-8.8,5.7l-14.6,1.1C81.9,201.3,81.6,201.3,81.3,201.3z"/>
	</g>
	<g>
		<path class="st0" d="M224.2,172.5c-19.1,0-35.3-12.8-39.3-31.1c-2.7-12.1-0.9-23.5,5.1-32.8c5.7-8.8,14.7-15,25.6-17.3
			c3.1-0.7,6.3-1,9.4-1c12.6,0,23.9,5.6,31.8,15.8c3.2,4.1,3,9.9-0.4,13.8l-6.3,7.3c0.8,0.5,1.5,1.1,2.2,1.8l10.9,11.5
			c4,4.2,4,10.9-0.1,15.1c-7.9,8.3-16.9,13.1-29.2,15.8C230.7,172.1,227.4,172.5,224.2,172.5C224.2,172.5,224.2,172.5,224.2,172.5z"
			/>
	</g>
	<g>
		<path class="st0" d="M174.2,185.3c-7.2,0-13.9-1.8-21.3-5.5c-17.1-8.8-23.9-28.6-15.4-45.1c6.4-12.3,17.7-19.7,30.3-19.7
			c5.3,0,10.8,1.3,15.8,3.9c11.8,6.1,18.7,17.5,18.6,30.7c-0.1,5.3-3.9,9.8-9.1,10.7l-5.1,0.9c0,0.3,0.1,0.6,0.1,0.9l0.8,11.5
			c0.4,5.9-3.9,11-9.8,11.6C177.4,185.2,175.8,185.3,174.2,185.3z"/>
	</g>
	<g>
		<path class="st1" d="M114.4,189.7c-0.9,0.1-1.7-0.5-2-1.4l-9.8-31.1l-0.2,0l-4.6,32.2c-0.1,0.9-0.9,1.6-1.8,1.7l-14.6,1.1
			c-0.9,0.1-1.7-0.5-2-1.4l-17.6-58c-0.3-1.1,0.4-2.3,1.6-2.5l15.5-2.4c1-0.1,1.9,0.4,2.2,1.4l8.8,29.4h0.2l4-29
			c0.1-0.9,0.9-1.6,1.8-1.7l9.1-0.7c0.9-0.1,1.7,0.5,2,1.4l8.8,28.4l0.2,0l4.2-30.7c0.1-1,1-1.7,1.9-1.7l15.4,0
			c1.2,0,2.1,1.1,1.9,2.2l-8.7,60c-0.1,0.9-0.9,1.6-1.8,1.7L114.4,189.7z"/>
	</g>
	<g>
		<g>
			<path class="st1" d="M179.4,126.8c-12.1-6.2-26.5-2.7-34,11.9c-6,11.7-1.7,26.2,11.6,33c7.4,3.8,13.8,5.1,21.1,4.3
				c1.1-0.1,1.8-1,1.8-2.1l-0.8-11.5c-0.1-1.1-1.1-2-2.2-1.8c-3.1,0.5-6.3,0.4-9.9-1.4c-0.1-0.1-0.3-0.1-0.4-0.2
				c-1.6-0.9-1.2-3.3,0.6-3.6l24.4-4.2c0.9-0.2,1.6-1,1.6-1.9C193.2,140,188.6,131.5,179.4,126.8z M174.3,144.4l-9.8,1.7
				c-1.6,0.3-2.8-1.4-2.1-2.8c0,0,0,0,0-0.1c1.9-3.7,6.5-6,10.4-3.9c1.1,0.5,2,1.1,2.6,1.9C176.4,142.4,175.7,144.1,174.3,144.4z"/>
		</g>
	</g>
	<g>
		<g>
			<path class="st1" d="M256.7,146.7l-10.9-11.5c-0.8-0.8-2.2-0.8-2.9,0.1c-2.7,3.2-6,5.9-11.2,7c-0.7,0.1-1.4,0.3-2.2,0.4
				c-1.8,0.2-2.9-1.8-1.7-3.2l21.9-25.5c0.6-0.7,0.6-1.7,0.1-2.4c-7.5-9.6-19.1-14.4-32.2-11.5c-17,3.7-28.3,18.9-23.8,39.4
				c3.6,16.5,19.8,27.2,38.3,23.2c10.5-2.3,18-6.4,24.7-13.3C257.4,148.6,257.4,147.4,256.7,146.7z M217.7,132
				c-1,1.2-2.9,0.8-3.3-0.7c-0.1-0.4-0.2-0.8-0.3-1.2c-1.1-5.2,1.5-11.1,7-12.3c2-0.4,3.7-0.5,5.4,0.1c1.2,0.5,1.6,2.1,0.7,3.1
				L217.7,132z"/>
		</g>
	</g>
</g>
<g>
	<path class="st0" d="M286.5,159.1v1h-2.9v7.6h-1.2v-7.6h-2.9v-1H286.5z"/>
	<path class="st0" d="M287.5,159.1h1.7l2.5,7.3l2.5-7.3h1.7v8.6h-1.1v-5.1c0-0.2,0-0.5,0-0.9c0-0.4,0-0.8,0-1.3l-2.5,7.2H291
		l-2.5-7.2v0.3c0,0.2,0,0.5,0,1c0,0.4,0,0.7,0,0.9v5.1h-1.1V159.1z"/>
</g>
</svg>
